# xmcd
#
# Track frame offsets:
#	150
#	12070
#	27282
#	40377
#	60152
#	77927
#	97582
#	114405
#	136520
#	165207
#	194137
#	214975
#	232752
#	256220
#	273672
#	301010
#
# Disc length: 4315 seconds
#
# Revision: 0
# Processed by: cddbd v1.5PL3 Copyright (c) Steve Scherf et al.
# Submitted via: EasyCDDAExtractor 5.0.0.0
#
DISCID=be10d910
DTITLE=Jimmie Vaughan - The Essential Jimmie Vaughan
DYEAR=2003
DGENRE=Blues
TTITLE0=Extra Jimmies (The Fabulous Thunderbirds)
TTITLE1=Tuff Enuff (The Fabulous Thunderbirds)
TTITLE2=DFW (The Vaughan Brothers)
TTITLE3=Good Texan (The Vaughan Brothers)
TTITLE4=Boom Bapa Boom
TTITLE5=Don't Cha Know
TTITLE6=Hey Yeah
TTITLE7=Tilt A Whirl
TTITLE8=Six Strings Down
TTITLE9=Dengue Woman Blues
TTITLE10=Cool Lookin' Woman
TTITLE11=Like A King
TTITLE12=The Ironic Twist
TTITLE13=Out There
TTITLE14=I Like It Like That (Live)
TTITLE15=Dirty Girl
EXTD=
EXTT0=
EXTT1=
EXTT2=
EXTT3=
EXTT4=
EXTT5=
EXTT6=
EXTT7=
EXTT8=
EXTT9=
EXTT10=
EXTT11=
EXTT12=
EXTT13=
EXTT14=
EXTT15=
PLAYORDER=
